<mxfile host="65bd71144e">
    <diagram id="bn3hqETrrYUvToLIWblg" name="PÃ¡gina-1">
        <mxGraphModel dx="1086" dy="825" grid="1" gridSize="10" guides="1" tooltips="1" connect="1" arrows="1" fold="1" page="1" pageScale="1" pageWidth="1169" pageHeight="827" math="0" shadow="0">
            <root>
                <mxCell id="0"/>
                <mxCell id="1" parent="0"/>
                <mxCell id="40" value="" style="rounded=0;whiteSpace=wrap;html=1;" vertex="1" parent="1">
                    <mxGeometry x="20" y="20" width="1070" height="530" as="geometry"/>
                </mxCell>
                <mxCell id="19" value="" style="edgeStyle=none;html=1;shadow=1;" edge="1" parent="1" source="2">
                    <mxGeometry relative="1" as="geometry">
                        <mxPoint x="230" y="110" as="targetPoint"/>
                    </mxGeometry>
                </mxCell>
                <mxCell id="2" value="Inicio&lt;div&gt;Criar Fut&lt;/div&gt;" style="strokeWidth=2;html=1;shape=mxgraph.flowchart.terminator;whiteSpace=wrap;fillColor=light-dark(#08f604, #ededed);shadow=1;" vertex="1" parent="1">
                    <mxGeometry x="50" y="80" width="100" height="60" as="geometry"/>
                </mxCell>
                <mxCell id="10" value="" style="edgeStyle=none;html=1;shadow=1;" edge="1" parent="1" source="8">
                    <mxGeometry relative="1" as="geometry">
                        <mxPoint x="590" y="107" as="targetPoint"/>
                    </mxGeometry>
                </mxCell>
                <mxCell id="12" value="" style="edgeStyle=none;html=1;shadow=1;" edge="1" parent="1" source="8">
                    <mxGeometry relative="1" as="geometry">
                        <mxPoint x="470" y="257" as="targetPoint"/>
                    </mxGeometry>
                </mxCell>
                <mxCell id="8" value="Adicionar Peladeiros" style="strokeWidth=2;html=1;shape=mxgraph.flowchart.decision;whiteSpace=wrap;shadow=1;" vertex="1" parent="1">
                    <mxGeometry x="423" y="57" width="100" height="100" as="geometry"/>
                </mxCell>
                <mxCell id="22" value="" style="edgeStyle=none;html=1;shadow=1;" edge="1" parent="1" source="21" target="8">
                    <mxGeometry relative="1" as="geometry"/>
                </mxCell>
                <mxCell id="21" value="&lt;span style=&quot;color: rgb(0, 0, 0);&quot;&gt;Receber Dados de Cadastro&lt;/span&gt;" style="html=1;strokeWidth=2;shape=manualInput;whiteSpace=wrap;rounded=1;size=26;arcSize=11;shadow=1;" vertex="1" parent="1">
                    <mxGeometry x="240" y="65" width="120" height="80" as="geometry"/>
                </mxCell>
                <mxCell id="34" value="" style="edgeStyle=none;html=1;entryX=0.5;entryY=0;entryDx=0;entryDy=0;entryPerimeter=0;shadow=1;" edge="1" parent="1" source="23" target="30">
                    <mxGeometry relative="1" as="geometry">
                        <mxPoint x="851" y="95" as="targetPoint"/>
                    </mxGeometry>
                </mxCell>
                <mxCell id="23" value="&lt;span style=&quot;color: rgb(0, 0, 0);&quot;&gt;Adicionar via Peladeiros Cadastrados&lt;/span&gt;" style="html=1;strokeWidth=2;shape=manualInput;whiteSpace=wrap;rounded=1;size=26;arcSize=11;shadow=1;" vertex="1" parent="1">
                    <mxGeometry x="591" y="45" width="120" height="100" as="geometry"/>
                </mxCell>
                <mxCell id="26" value="" style="edgeStyle=none;html=1;shadow=1;" edge="1" parent="1" source="24" target="25">
                    <mxGeometry relative="1" as="geometry"/>
                </mxCell>
                <mxCell id="24" value="&lt;span style=&quot;color: rgb(0, 0, 0);&quot;&gt;Adicionar Via Lista em Texto&lt;/span&gt;" style="html=1;strokeWidth=2;shape=manualInput;whiteSpace=wrap;rounded=1;size=26;arcSize=11;shadow=1;" vertex="1" parent="1">
                    <mxGeometry x="420" y="250" width="100" height="80" as="geometry"/>
                </mxCell>
                <mxCell id="32" value="" style="edgeStyle=none;html=1;entryX=0;entryY=0.5;entryDx=0;entryDy=0;entryPerimeter=0;shadow=1;" edge="1" parent="1" source="25" target="30">
                    <mxGeometry relative="1" as="geometry">
                        <mxPoint x="710" y="404" as="targetPoint"/>
                    </mxGeometry>
                </mxCell>
                <mxCell id="25" value="Processar texto e transformar em Peladeiro" style="whiteSpace=wrap;html=1;strokeWidth=2;rounded=1;arcSize=11;shadow=1;" vertex="1" parent="1">
                    <mxGeometry x="410" y="420" width="120" height="60" as="geometry"/>
                </mxCell>
                <mxCell id="37" value="" style="edgeStyle=none;html=1;entryX=0;entryY=0.5;entryDx=0;entryDy=0;entryPerimeter=0;shadow=1;" edge="1" parent="1" source="30" target="35">
                    <mxGeometry relative="1" as="geometry">
                        <mxPoint x="775" y="157" as="targetPoint"/>
                    </mxGeometry>
                </mxCell>
                <mxCell id="30" value="DataBase" style="strokeWidth=2;html=1;shape=mxgraph.flowchart.database;whiteSpace=wrap;shadow=1;" vertex="1" parent="1">
                    <mxGeometry x="630" y="407" width="70" height="86" as="geometry"/>
                </mxCell>
                <mxCell id="39" value="" style="edgeStyle=none;html=1;shadow=1;" edge="1" parent="1" source="35" target="38">
                    <mxGeometry relative="1" as="geometry"/>
                </mxCell>
                <mxCell id="35" value="Mostrar Peladeiros&amp;nbsp;&lt;div&gt;&lt;span style=&quot;color: rgb(63, 63, 63);&quot;&gt;Cadastrados&lt;/span&gt;&lt;/div&gt;" style="strokeWidth=2;html=1;shape=mxgraph.flowchart.display;whiteSpace=wrap;shadow=1;" vertex="1" parent="1">
                    <mxGeometry x="760" y="412" width="140" height="78" as="geometry"/>
                </mxCell>
                <mxCell id="38" value="Fim&lt;div&gt;Criar Fut&lt;/div&gt;" style="strokeWidth=2;html=1;shape=mxgraph.flowchart.terminator;whiteSpace=wrap;fillColor=#FF0000;shadow=1;" vertex="1" parent="1">
                    <mxGeometry x="960" y="412" width="110" height="77" as="geometry"/>
                </mxCell>
                <mxCell id="41" value="&lt;b&gt;Criar Fut&lt;/b&gt;" style="text;html=1;align=center;verticalAlign=middle;whiteSpace=wrap;rounded=0;perimeterSpacing=1;" vertex="1" parent="1">
                    <mxGeometry x="20" y="20" width="140" height="50" as="geometry"/>
                </mxCell>
            </root>
        </mxGraphModel>
    </diagram>
</mxfile>